<?xml version="1.0" standalone="no"?>
<!DOCTYPE svg PUBLIC "-//W3C//DTD SVG 20010904//EN"
 "http://www.w3.org/TR/2001/REC-SVG-20010904/DTD/svg10.dtd">
<svg version="1.0" xmlns="http://www.w3.org/2000/svg"
 width="256.000000pt" height="256.000000pt" viewBox="0 0 256.000000 256.000000"
 preserveAspectRatio="xMidYMid meet">
<metadata>
Created by potrace 1.14, written by Peter Selinger 2001-2017
</metadata>
<g transform="translate(0.000000,256.000000) scale(0.100000,-0.100000)"
fill="#000000" stroke="none">
<path d="M1139 2256 c-2 -2 -31 -7 -64 -10 -198 -21 -428 -90 -605 -183 -178
-93 -395 -256 -440 -328 -48 -77 -15 -187 65 -221 37 -15 119 -11 143 8 9 7
51 40 92 74 369 302 820 413 1270 313 52 -12 100 -24 105 -27 6 -4 12 -7 15
-7 32 -5 197 -72 250 -103 25 -15 47 -27 50 -27 4 -1 33 -19 110 -72 25 -17
119 -93 154 -125 92 -84 233 -51 263 62 20 75 -4 129 -93 205 -158 137 -342
248 -536 324 -81 32 -272 85 -348 96 -25 4 -54 10 -65 12 -24 6 -361 14 -366
9z"/>
<path d="M1167 1734 c-1 -1 -22 -4 -47 -8 -71 -9 -101 -15 -157 -32 -29 -9
-58 -17 -65 -18 -7 -2 -26 -8 -41 -14 -16 -7 -30 -12 -32 -12 -14 0 -167 -78
-222 -113 -81 -52 -194 -146 -222 -185 -52 -73 -26 -184 52 -223 54 -28 124
-22 169 14 186 150 300 213 453 252 87 22 115 25 244 22 115 -3 163 -8 226
-26 123 -35 249 -102 355 -187 52 -42 106 -80 119 -85 104 -41 214 41 206 152
-3 57 -25 90 -102 156 -173 149 -371 243 -613 292 -44 9 -315 21 -323 15z"/>
<path d="M1173 1205 c-94 -14 -115 -21 -231 -78 -93 -45 -200 -136 -227 -194
-48 -100 29 -217 142 -215 50 1 73 12 120 56 176 162 410 167 592 11 64 -55
92 -68 144 -66 96 3 161 88 142 189 -5 28 -22 52 -75 104 -162 157 -381 226
-607 193z"/>
<path d="M1204 656 c-68 -30 -116 -111 -109 -189 8 -100 97 -173 200 -165 72
6 118 38 152 107 25 50 26 57 15 108 -6 29 -21 67 -34 83 -49 62 -151 87 -224
56z"/>
</g>
</svg>
